<?xml version="1.0" standalone="yes"?>
<svg xmlns="http://www.w3.org/2000/svg" width="900" height="450">
<path style="fill:#ffffff; stroke:none;" d="M0 0L0 450L900 450L900 0L0 0z"/>
<path style="fill:#c7dde2; stroke:none;" d="M282 167L282 168L285 168L282 167z"/>
<path style="fill:#a3c3d5; stroke:none;" d="M285.667 167.333L286.333 167.667L285.667 167.333z"/>
<path style="fill:#74bc8e; stroke:none;" d="M287 167.425C272.607 169.38 259.682 175.436 251.548 188C230.969 219.788 255.521 266.547 295 261.714C310.904 259.767 325.16 252.482 333.096 238C350.9 205.508 325.184 162.24 287 167.425z"/>
<path style="fill:#a3c3d5; stroke:none;" d="M296.667 167.333L297.333 167.667L296.667 167.333z"/>
<path style="fill:#c7dde2; stroke:none;" d="M298 167L298 168L301 168L298 167M771.667 167.333L772.333 167.667L771.667 167.333z"/>
<path style="fill:#a3c3d5; stroke:none;" d="M773 167L773 168L776 168L773 167z"/>
<path style="fill:#76a1c9; stroke:none;" d="M776 167.425C762.529 169.254 749.978 174.57 741.789 186C719.088 217.684 743.309 266.695 784 261.714C795.321 260.328 806.669 256.272 814.7 247.829C843.806 217.234 819.741 161.488 776 167.425z"/>
<path style="fill:#a3c3d5; stroke:none;" d="M785 167L785 168L788 168L785 167z"/>
<path style="fill:#c7dde2; stroke:none;" d="M788.667 167.333L789.333 167.667L788.667 167.333M53 168L53 169L126 169L126 178L127 178L127 168L53 168M145 168L145 169L155 169L155 225C159.607 214.02 156 194.944 156 183C156 179.469 157.301 172.543 154.972 169.603C152.977 167.085 147.819 168 145 168M212 168L212 169L223 169L212 168M278 168L279 169L278 168z"/>
<path style="fill:#a3c3d5; stroke:none;" d="M279 168L280 169L279 168M303 168L304 169L303 168z"/>
<path style="fill:#c7dde2; stroke:none;" d="M304 168L305 169L304 168M348 168L348 169L422 169L399 168L348 168M510 261L510 260L442 260L442 169L509 169L509 178C510.134 175.296 511.006 170.239 507.682 168.603C503.878 166.732 497.155 168 493 168L458 168C454.071 168 445.85 166.456 442.603 169.028C438.849 172.001 441 184.619 441 189L441 242C441 246.087 439.061 257.167 442.603 259.972C446.294 262.895 456.487 261 461 261L510 261M531 168L531 169L542 169L531 168M608 171L621 169C616.565 167.139 611.388 167.54 608 171M647 168L647 169L688 169C677.25 164.489 658.696 168 647 168M767 168L768 169L767 168z"/>
<path style="fill:#a3c3d5; stroke:none;" d="M768 168L769 169L768 168M792 168L793 169L792 168z"/>
<path style="fill:#c7dde2; stroke:none;" d="M793 168L794 169L793 168z"/>
<path style="fill:#74bc8e; stroke:none;" d="M53 169L53 178L85 178L85 260L95 260L95 178L126 178L126 169L53 169M145 169C145 190.999 139.254 222.817 149.378 243C161.494 267.153 203.491 268.462 217.045 245C228.779 224.688 223 191.588 223 169L213 169C213 189.172 218.804 220.918 208.468 239C197.714 257.81 167.71 256.359 158.403 237C149.559 218.605 155 188.989 155 169L145 169z"/>
<path style="fill:#a3c3d5; stroke:none;" d="M212 169L212 223L213 223L213 187L212 169z"/>
<path style="fill:#c7dde2; stroke:none;" d="M275 169L276 170L275 169z"/>
<path style="fill:#a3c3d5; stroke:none;" d="M276 169L277 170L276 169z"/>
<path style="fill:#c7dde2; stroke:none;" d="M307 169L308 170L307 169z"/>
<path style="fill:#a3c3d5; stroke:none;" d="M348 169L348 178L349 178L348 169z"/>
<path style="fill:#76a1c9; stroke:none;" d="M349 169L349 178L380 178L380 260L390 260L390 178L422 178L422 169L349 169M442 169L442 260L510 260L510 251L452 251L452 219L503 219L503 210L452 210L452 178L509 178L509 169L442 169z"/>
<path style="fill:#a3c3d5; stroke:none;" d="M531 169L531 260L532 260L532 197L531 169z"/>
<path style="fill:#76a1c9; stroke:none;" d="M532 169L532 260L541 260L541 187C554.118 197.842 566.706 220.103 575 235L611 187L611 260L621 260L621 169L610.184 170.028L599.667 184L577 219C564.768 204.649 552.474 169.002 532 169z"/>
<path style="fill:#a3c3d5; stroke:none;" d="M542 169L543 170L542 169M647 169L647 260L648 260L648 197L647 169z"/>
<path style="fill:#76a1c9; stroke:none;" d="M648 169L648 260L658 260L658 228C672.503 228 689.891 230.246 703 222.637C719.65 212.972 722.74 186.365 705.996 175.105C690.374 164.599 665.889 169 648 169z"/>
<path style="fill:#a3c3d5; stroke:none;" d="M691 169L692 170L691 169z"/>
<path style="fill:#c7dde2; stroke:none;" d="M692.667 169.333L693.333 169.667L692.667 169.333z"/>
<path style="fill:#a3c3d5; stroke:none;" d="M764 169L765 170L764 169M795 169L796 170L795 169z"/>
<path style="fill:#c7dde2; stroke:none;" d="M796 169L797 170L796 169M272 170L273 171L272 170z"/>
<path style="fill:#a3c3d5; stroke:none;" d="M273 170L274 171L273 170z"/>
<path style="fill:#c7dde2; stroke:none;" d="M310 170L311 171L310 170M543 170L544 171L543 170z"/>
<path style="fill:#a3c3d5; stroke:none;" d="M695.667 170.333L696.333 170.667L695.667 170.333z"/>
<path style="fill:#c7dde2; stroke:none;" d="M697 170L698 171L697 170M761 170L762 171L761 170z"/>
<path style="fill:#a3c3d5; stroke:none;" d="M762 170L763 171L762 170M798 170L799 171L798 170z"/>
<path style="fill:#c7dde2; stroke:none;" d="M799 170L800 171L799 170M270 171L271 172L270 171M312 171L313 172L312 171M699 171L700 172L699 171z"/>
<path style="fill:#a3c3d5; stroke:none;" d="M759 171L760 172L759 171z"/>
<path style="fill:#c7dde2; stroke:none;" d="M801 171L802 172L801 171M268 172L269 173L268 172M314 172L315 173L314 172z"/>
<path style="fill:#a3c3d5; stroke:none;" d="M544 172L545 173L544 172M607 172L608 173L607 172M701 172L702 173L701 172M757 172L758 173L757 172z"/>
<path style="fill:#c7dde2; stroke:none;" d="M803 172L804 173L803 172M266 173L267 174L266 173M316 173L317 174L316 173M545 173L546 174L545 173M606 173L607 174L606 173z"/>
<path style="fill:#a3c3d5; stroke:none;" d="M703 173L704 174L703 173z"/>
<path style="fill:#c7dde2; stroke:none;" d="M755 173L756 174L755 173M805 173L806 174L805 173z"/>
<path style="fill:#a3c3d5; stroke:none;" d="M265 174L266 175L265 174M317 174L318 175L317 174z"/>
<path style="fill:#c7dde2; stroke:none;" d="M705 174L706 175L705 174M753 174L754 175L753 174z"/>
<path style="fill:#a3c3d5; stroke:none;" d="M754 174L755 175L754 174M806 174L807 175L806 174z"/>
<path style="fill:#c7dde2; stroke:none;" d="M263 175L264 176L263 175M319 175L320 176L319 175z"/>
<path style="fill:#a3c3d5; stroke:none;" d="M546 175L547 176L546 175M605 175L606 176L605 175M706 175L707 176L706 175M752 175L753 176L752 175z"/>
<path style="fill:#c7dde2; stroke:none;" d="M808 175L809 176L808 175z"/>
<path style="fill:#a3c3d5; stroke:none;" d="M262 176L263 177L262 176M320 176L321 177L320 176z"/>
<path style="fill:#c7dde2; stroke:none;" d="M547 176L548 177L547 176M604 176L605 177L604 176z"/>
<path style="fill:#a3c3d5; stroke:none;" d="M751 176L752 177L751 176M809 176L810 177L809 176z"/>
<path style="fill:#c7dde2; stroke:none;" d="M322 177L323 178L322 177M709 177L710 178L709 177M749 177L750 178L749 177z"/>
<path style="fill:#a3c3d5; stroke:none;" d="M84 178L84 260L85 260L85 203L84 178z"/>
<path style="fill:#c7dde2; stroke:none;" d="M95 178L96 179L95 178M259 178L260 179L259 178M323 178L324 179L323 178M379 178L379 260L380 260L380 203L379 178z"/>
<path style="fill:#a3c3d5; stroke:none;" d="M390 178L391 179L390 178z"/>
<path style="fill:#c7dde2; stroke:none;" d="M452 178L452 209L453 209L452 178z"/>
<path style="fill:#a3c3d5; stroke:none;" d="M548 178L549 179L548 178M603 178L604 179L603 178z"/>
<path style="fill:#ffffff; stroke:none;" d="M658 178L658 218C670.145 218 686.076 220.786 696.996 214.468C708.361 207.892 709.747 189.375 697.985 182.363C686.535 175.537 670.671 178.688 658 178z"/>
<path style="fill:#c7dde2; stroke:none;" d="M661 178L662 179L661 178M680 178L681 179L680 178M682 178L682 179L687 179L682 178z"/>
<path style="fill:#a3c3d5; stroke:none;" d="M687.667 178.333L688.333 178.667L687.667 178.333z"/>
<path style="fill:#c7dde2; stroke:none;" d="M710 178L711 179L710 178M748 178L749 179L748 178M812 178L813 179L812 178M258 179L259 180L258 179z"/>
<path style="fill:#a3c3d5; stroke:none;" d="M287 179L288 180L287 179z"/>
<path style="fill:#c7dde2; stroke:none;" d="M287 215L288 215L288 180L296 180L296 215C299.15 207.493 298.229 191.142 296.852 183.059C296.233 179.423 291.665 177.611 288.603 180.028C286.249 181.886 287.001 186.387 287 189L287 215z"/>
<path style="fill:#a3c3d5; stroke:none;" d="M296 179L297 180L296 179z"/>
<path style="fill:#c7dde2; stroke:none;" d="M324 179L325 180L324 179M390 179L390 260L380 260L380 261L391 261L391 204L390 179M549 179L550 180L549 179M602 179L603 180L602 179M691 179L692 180L691 179z"/>
<path style="fill:#a3c3d5; stroke:none;" d="M692 179L693 180L692 179z"/>
<path style="fill:#c7dde2; stroke:none;" d="M747 179L748 180L747 179M813 179L814 180L813 179M257 180L258 181L257 180z"/>
<path style="fill:#ffffff; stroke:none;" d="M288 180L288 215L296 215L296 180L288 180z"/>
<path style="fill:#c7dde2; stroke:none;" d="M325 180L326 181L325 180M694 180L695 181L694 180z"/>
<path style="fill:#a3c3d5; stroke:none;" d="M695 180L696 181L695 180M746 180L747 181L746 180z"/>
<path style="fill:#c7dde2; stroke:none;" d="M814 180L815 181L814 180M256 181L257 182L256 181M326 181L327 182L326 181z"/>
<path style="fill:#a3c3d5; stroke:none;" d="M550 181L551 182L550 181M601 181L602 182L601 181z"/>
<path style="fill:#c7dde2; stroke:none;" d="M696 181L697 182L696 181z"/>
<path style="fill:#a3c3d5; stroke:none;" d="M697 181L698 182L697 181M712 181L713 182L712 181z"/>
<path style="fill:#c7dde2; stroke:none;" d="M745 181L746 182L745 181M815 181L816 182L815 181M255 182L256 183L255 182M327 182L328 183L327 182M551 182L552 183L551 182M600 182L601 183L600 182M698 182L699 183L698 182M713 182L714 183L713 182M744 182L745 183L744 182M816 182L817 183L816 182M328 183L329 184L328 183M552 183L553 184L552 183z"/>
<path style="fill:#a3c3d5; stroke:none;" d="M700 183L701 184L700 183z"/>
<path style="fill:#c7dde2; stroke:none;" d="M743 183L744 184L743 183z"/>
<path style="fill:#a3c3d5; stroke:none;" d="M599 184L600 185L599 184M701 184L702 185L701 184z"/>
<path style="fill:#c7dde2; stroke:none;" d="M714 184L715 185L714 184z"/>
<path style="fill:#a3c3d5; stroke:none;" d="M817 184L818 185L817 184M253 185L254 186L253 185M329 185L330 186L329 185M553 185L554 186L553 185z"/>
<path style="fill:#c7dde2; stroke:none;" d="M598 185L599 186L598 185z"/>
<path style="fill:#a3c3d5; stroke:none;" d="M702 185L703 186L702 185M818 185L819 186L818 185z"/>
<path style="fill:#c7dde2; stroke:none;" d="M252 186L253 187L252 186M330 186L331 187L330 186M554 186L555 187L554 186M715 186L716 187L715 186z"/>
<path style="fill:#a3c3d5; stroke:none;" d="M741 186L742 187L741 186z"/>
<path style="fill:#c7dde2; stroke:none;" d="M819 186L820 187L819 186z"/>
<path style="fill:#a3c3d5; stroke:none;" d="M541 187L541 260L542 260C542 237.116 537.702 209.254 543 187L541 187M597 187L598 188L597 187z"/>
<path style="fill:#c7dde2; stroke:none;" d="M609 187L610 188L609 187z"/>
<path style="fill:#a3c3d5; stroke:none;" d="M610 187L610 260L611 260L611 210L610 187z"/>
<path style="fill:#c7dde2; stroke:none;" d="M703 187L704 188L703 187z"/>
<path style="fill:#a3c3d5; stroke:none;" d="M715 187L716 188L715 187z"/>
<path style="fill:#c7dde2; stroke:none;" d="M740 187L741 188L740 187z"/>
<path style="fill:#a3c3d5; stroke:none;" d="M543 188L544 189L543 188M555 188L556 189L555 188z"/>
<path style="fill:#c7dde2; stroke:none;" d="M596 188L597 189L596 188z"/>
<path style="fill:#a3c3d5; stroke:none;" d="M608 188L609 189L608 188M704 188L705 189L704 188M820 188L821 189L820 188z"/>
<path style="fill:#c7dde2; stroke:none;" d="M250 189L251 190L250 189M332 189L333 190L332 189M556 189L557 190L556 189M716 189L717 190L716 189z"/>
<path style="fill:#a3c3d5; stroke:none;" d="M739 189L740 190L739 189z"/>
<path style="fill:#c7dde2; stroke:none;" d="M821 189L822 190L821 189M544 190L545 191L544 190z"/>
<path style="fill:#a3c3d5; stroke:none;" d="M595 190L596 191L595 190z"/>
<path style="fill:#c7dde2; stroke:none;" d="M607 190L608 191L607 190z"/>
<path style="fill:#a3c3d5; stroke:none;" d="M705 190L706 191L705 190M716 190L717 191L716 190z"/>
<path style="fill:#c7dde2; stroke:none;" d="M249 191L250 192L249 191M333 191L334 192L333 191z"/>
<path style="fill:#a3c3d5; stroke:none;" d="M545 191L546 192L545 191M557 191L558 192L557 191z"/>
<path style="fill:#c7dde2; stroke:none;" d="M594 191L595 192L594 191z"/>
<path style="fill:#a3c3d5; stroke:none;" d="M606 191L607 192L606 191z"/>
<path style="fill:#c7dde2; stroke:none;" d="M705 191L706 192L705 191z"/>
<path style="fill:#a3c3d5; stroke:none;" d="M738 191L739 192L738 191z"/>
<path style="fill:#c7dde2; stroke:none;" d="M822 191L823 192L822 191M558 192L559 193L558 192M737 192L738 193L737 192z"/>
<path style="fill:#a3c3d5; stroke:none;" d="M248 193L249 194L248 193z"/>
<path style="fill:#c7dde2; stroke:none;" d="M334 193L335 194L334 193M546 193L547 194L546 193z"/>
<path style="fill:#a3c3d5; stroke:none;" d="M593 193L594 194L593 193z"/>
<path style="fill:#c7dde2; stroke:none;" d="M605 193L606 194L605 193z"/>
<path style="fill:#a3c3d5; stroke:none;" d="M706.333 193.667L706.667 194.333L706.333 193.667M737 193L738 194L737 193z"/>
<path style="fill:#c7dde2; stroke:none;" d="M823 193L824 194L823 193z"/>
<path style="fill:#a3c3d5; stroke:none;" d="M547 194L548 195L547 194M559 194L560 195L559 194z"/>
<path style="fill:#c7dde2; stroke:none;" d="M592 194L593 195L592 194M604 194L605 195L604 194M717 194L717 202L718 202L717 194M736 194L737 195L736 194M247 195L248 196L247 195M335 195L336 196L335 195M560 195L561 196L560 195M591 195L592 196L591 195z"/>
<path style="fill:#a3c3d5; stroke:none;" d="M603 195L604 196L603 195z"/>
<path style="fill:#c7dde2; stroke:none;" d="M706 195L706 201L707 201L706 195z"/>
<path style="fill:#a3c3d5; stroke:none;" d="M736 195L737 196L736 195z"/>
<path style="fill:#c7dde2; stroke:none;" d="M824 195L825 196L824 195M548 196L549 197L548 196z"/>
<path style="fill:#a3c3d5; stroke:none;" d="M824 196L825 197L824 196z"/>
<path style="fill:#c7dde2; stroke:none;" d="M246 197L247 198L246 197z"/>
<path style="fill:#a3c3d5; stroke:none;" d="M549 197L550 198L549 197M561 197L562 198L561 197M590 197L591 198L590 197z"/>
<path style="fill:#c7dde2; stroke:none;" d="M602 197L603 198L602 197M735 197L736 198L735 197z"/>
<path style="fill:#a3c3d5; stroke:none;" d="M246 198L247 199L246 198z"/>
<path style="fill:#c7dde2; stroke:none;" d="M336 198L337 199L336 198M562 198L563 199L562 198M589 198L590 199L589 198z"/>
<path style="fill:#a3c3d5; stroke:none;" d="M601 198L602 199L601 198M735 198L736 199L735 198z"/>
<path style="fill:#c7dde2; stroke:none;" d="M825 198L826 199L825 198M550 199L551 200L550 199z"/>
<path style="fill:#a3c3d5; stroke:none;" d="M825 199L826 200L825 199z"/>
<path style="fill:#c7dde2; stroke:none;" d="M245.333 200.667L245.667 201.333L245.333 200.667M551 200L552 201L551 200z"/>
<path style="fill:#a3c3d5; stroke:none;" d="M563 200L564 201L563 200M588 200L589 201L588 200z"/>
<path style="fill:#c7dde2; stroke:none;" d="M600 200L601 201L600 200M734 200L735 201L734 200M337 201L338 202L337 201z"/>
<path style="fill:#a3c3d5; stroke:none;" d="M552 201L553 202L552 201z"/>
<path style="fill:#c7dde2; stroke:none;" d="M564 201L565 202L564 201M587 201L588 202L587 201z"/>
<path style="fill:#a3c3d5; stroke:none;" d="M599 201L600 202L599 201M706.333 201.667L706.667 202.333L706.333 201.667M734 201L735 202L734 201z"/>
<path style="fill:#c7dde2; stroke:none;" d="M826 201L827 202L826 201z"/>
<path style="fill:#a3c3d5; stroke:none;" d="M337 202L338 203L337 202M826 202L827 203L826 202z"/>
<path style="fill:#c7dde2; stroke:none;" d="M553 203L554 204L553 203z"/>
<path style="fill:#a3c3d5; stroke:none;" d="M565 203L566 204L565 203M586 203L587 204L586 203z"/>
<path style="fill:#c7dde2; stroke:none;" d="M598 203L599 204L598 203M733.333 203.667L733.667 204.333L733.333 203.667M244.333 204.667L244.667 205.333L244.333 204.667z"/>
<path style="fill:#a3c3d5; stroke:none;" d="M554 204L555 205L554 204z"/>
<path style="fill:#c7dde2; stroke:none;" d="M566 204L567 205L566 204M585 204L586 205L585 204z"/>
<path style="fill:#a3c3d5; stroke:none;" d="M597 204L598 205L597 204z"/>
<path style="fill:#c7dde2; stroke:none;" d="M705 204L706 205L705 204z"/>
<path style="fill:#a3c3d5; stroke:none;" d="M716 204L717 205L716 204z"/>
<path style="fill:#c7dde2; stroke:none;" d="M338.333 205.667L338.667 206.333L338.333 205.667z"/>
<path style="fill:#a3c3d5; stroke:none;" d="M705 205L706 206L705 205z"/>
<path style="fill:#c7dde2; stroke:none;" d="M716.333 205.667L716.667 206.333L716.333 205.667z"/>
<path style="fill:#a3c3d5; stroke:none;" d="M733 205L734 206L733 205z"/>
<path style="fill:#c7dde2; stroke:none;" d="M827.333 205.667L827.667 206.333L827.333 205.667z"/>
<path style="fill:#a3c3d5; stroke:none;" d="M244 206L245 207L244 206z"/>
<path style="fill:#c7dde2; stroke:none;" d="M555 206L556 207L555 206z"/>
<path style="fill:#a3c3d5; stroke:none;" d="M567 206L568 207L567 206M584 206L585 207L584 206M338 207L339 208L338 207M556 207L557 208L556 207z"/>
<path style="fill:#c7dde2; stroke:none;" d="M568 207L569 208L568 207M583 207L584 208L583 207M595 207L596 208L595 207z"/>
<path style="fill:#a3c3d5; stroke:none;" d="M704 207L705 208L704 207M827 207L827 210L828 210L827 207z"/>
<path style="fill:#c7dde2; stroke:none;" d="M569 208L570 209L569 208z"/>
<path style="fill:#a3c3d5; stroke:none;" d="M594 208L595 209L594 208z"/>
<path style="fill:#c7dde2; stroke:none;" d="M703 208L704 209L703 208z"/>
<path style="fill:#a3c3d5; stroke:none;" d="M715 208L716 209L715 208M452 209L452 210L503 210C489.873 204.492 466.311 209 452 209z"/>
<path style="fill:#c7dde2; stroke:none;" d="M503 209L503 219L504 219L503 209M557 209L558 210L557 209z"/>
<path style="fill:#a3c3d5; stroke:none;" d="M582 209L583 210L582 209z"/>
<path style="fill:#c7dde2; stroke:none;" d="M732 209L732 220L733 220L732 209z"/>
<path style="fill:#a3c3d5; stroke:none;" d="M558 210L559 211L558 210M570 210L571 211L570 210z"/>
<path style="fill:#c7dde2; stroke:none;" d="M581 210L582 211L581 210M593 210L594 211L593 210z"/>
<path style="fill:#a3c3d5; stroke:none;" d="M702 210L703 211L702 210M714 210L715 211L714 210z"/>
<path style="fill:#ffffff; stroke:none;" d="M779 210L779 219L815 219L815 210L779 210z"/>
<path style="fill:#c7dde2; stroke:none;" d="M811 210L812 211L811 210z"/>
<path style="fill:#a3c3d5; stroke:none;" d="M815 210L816 211L815 210z"/>
<path style="fill:#c7dde2; stroke:none;" d="M243 211L243 218L244 218L243 211M571 211L572 212L571 211z"/>
<path style="fill:#a3c3d5; stroke:none;" d="M592 211L593 212L592 211M701 211L702 212L701 211z"/>
<path style="fill:#c7dde2; stroke:none;" d="M714 211L715 212L714 211z"/>
<path style="fill:#a3c3d5; stroke:none;" d="M778.333 211.667L778.667 212.333L778.333 211.667z"/>
<path style="fill:#c7dde2; stroke:none;" d="M815 211L815 219L816 219L815 211M559 212L560 213L559 212z"/>
<path style="fill:#a3c3d5; stroke:none;" d="M580 212L581 213L580 212M700 212L701 213L700 212M713 212L714 213L713 212z"/>
<path style="fill:#c7dde2; stroke:none;" d="M560 213L561 214L560 213z"/>
<path style="fill:#a3c3d5; stroke:none;" d="M572 213L573 214L572 213z"/>
<path style="fill:#c7dde2; stroke:none;" d="M579 213L580 214L579 213M591 213L592 214L591 213M698 213L699 214L698 213z"/>
<path style="fill:#a3c3d5; stroke:none;" d="M561 214L562 215L561 214z"/>
<path style="fill:#c7dde2; stroke:none;" d="M573 214L574 215L573 214z"/>
<path style="fill:#a3c3d5; stroke:none;" d="M590 214L591 215L590 214M697 214L698 215L697 214z"/>
<path style="fill:#c7dde2; stroke:none;" d="M712 214L713 215L712 214z"/>
<path style="fill:#a3c3d5; stroke:none;" d="M778 214L778 219L779 219L778 214M287 215L287 216L296 216L287 215M578 215L579 216L578 215z"/>
<path style="fill:#c7dde2; stroke:none;" d="M695 215L696 216L695 215z"/>
<path style="fill:#a3c3d5; stroke:none;" d="M711 215L712 216L711 215z"/>
<path style="fill:#c7dde2; stroke:none;" d="M562 216L563 217L562 216z"/>
<path style="fill:#a3c3d5; stroke:none;" d="M574 216L575 217L574 216z"/>
<path style="fill:#c7dde2; stroke:none;" d="M577 216L578 217L577 216M589 216L590 217L589 216M692 216L693 217L692 216z"/>
<path style="fill:#a3c3d5; stroke:none;" d="M693 216L694 217L693 216M710 216L711 217L710 216M563 217L564 218L563 217z"/>
<path style="fill:#c7dde2; stroke:none;" d="M575 217L576 218L575 217z"/>
<path style="fill:#a3c3d5; stroke:none;" d="M588 217L589 218L588 217z"/>
<path style="fill:#c7dde2; stroke:none;" d="M689 217L690 218L689 217z"/>
<path style="fill:#a3c3d5; stroke:none;" d="M690 217L691 218L690 217M709 217L710 218L709 217M576 218L577 219L576 218z"/>
<path style="fill:#c7dde2; stroke:none;" d="M658 218L658 219L683 219L658 218z"/>
<path style="fill:#a3c3d5; stroke:none;" d="M683 218L683 219L686 219L683 218M708 218L709 219L708 218z"/>
<path style="fill:#c7dde2; stroke:none;" d="M452 219L452 251L453 251L452 219M564 219L565 220L564 219z"/>
<path style="fill:#a3c3d5; stroke:none;" d="M707 219L708 220L707 219M827.333 219.667L827.667 220.333L827.333 219.667M338.333 220.667L338.667 221.333L338.333 220.667M565 220L566 221L565 220z"/>
<path style="fill:#c7dde2; stroke:none;" d="M586 220L587 221L586 220M706 220L707 221L706 220z"/>
<path style="fill:#a3c3d5; stroke:none;" d="M585 221L586 222L585 221z"/>
<path style="fill:#c7dde2; stroke:none;" d="M827 221L827 224L828 224L827 221z"/>
<path style="fill:#a3c3d5; stroke:none;" d="M222 222L222 227L223 227L222 222M244 222L245 223L244 222z"/>
<path style="fill:#c7dde2; stroke:none;" d="M338.333 222.667L338.667 223.333L338.333 222.667M566 222L567 223L566 222M703 222L704 223L703 222M244.333 223.667L244.667 224.333L244.333 223.667z"/>
<path style="fill:#a3c3d5; stroke:none;" d="M567 223L568 224L567 223z"/>
<path style="fill:#c7dde2; stroke:none;" d="M584 223L585 224L584 223z"/>
<path style="fill:#a3c3d5; stroke:none;" d="M701 223L702 224L701 223M733.333 223.667L733.667 224.333L733.333 223.667M568 224L569 225L568 224M583 224L584 225L583 224z"/>
<path style="fill:#c7dde2; stroke:none;" d="M699 224L700 225L699 224z"/>
<path style="fill:#a3c3d5; stroke:none;" d="M155.333 225.667L155.667 226.333L155.333 225.667M696 225L697 226L696 225z"/>
<path style="fill:#c7dde2; stroke:none;" d="M697 225L698 226L697 225M733 225L734 226L733 225z"/>
<path style="fill:#a3c3d5; stroke:none;" d="M826.333 225.667L826.667 226.333L826.333 225.667M337 226L338 227L337 226z"/>
<path style="fill:#c7dde2; stroke:none;" d="M569 226L570 227L569 226M582 226L583 227L582 226z"/>
<path style="fill:#a3c3d5; stroke:none;" d="M692 226L693 227L692 226z"/>
<path style="fill:#c7dde2; stroke:none;" d="M693.667 226.333L694.333 226.667L693.667 226.333M222 227L222 230L223 230L222 227z"/>
<path style="fill:#a3c3d5; stroke:none;" d="M245 227L246 228L245 227z"/>
<path style="fill:#c7dde2; stroke:none;" d="M337 227L338 228L337 227z"/>
<path style="fill:#a3c3d5; stroke:none;" d="M570 227L571 228L570 227M581 227L582 228L581 227M686.667 227.333L687.333 227.667L686.667 227.333z"/>
<path style="fill:#c7dde2; stroke:none;" d="M688.667 227.333L689.333 227.667L688.667 227.333M826 227L827 228L826 227z"/>
<path style="fill:#a3c3d5; stroke:none;" d="M145.333 228.667L145.667 229.333L145.333 228.667z"/>
<path style="fill:#c7dde2; stroke:none;" d="M211 228L211 231L212 231L211 228M245 228L246 229L245 228z"/>
<path style="fill:#a3c3d5; stroke:none;" d="M734 228L735 229L734 228M336 229L337 230L336 229z"/>
<path style="fill:#c7dde2; stroke:none;" d="M571 229L572 230L571 229M580 229L581 230L580 229M734 229L735 230L734 229z"/>
<path style="fill:#a3c3d5; stroke:none;" d="M825 229L826 230L825 229z"/>
<path style="fill:#c7dde2; stroke:none;" d="M145.333 230.667L145.667 231.333L145.333 230.667M156.333 230.667L156.667 231.333L156.333 230.667z"/>
<path style="fill:#a3c3d5; stroke:none;" d="M246 230L247 231L246 230z"/>
<path style="fill:#c7dde2; stroke:none;" d="M336 230L337 231L336 230z"/>
<path style="fill:#a3c3d5; stroke:none;" d="M572 230L573 231L572 230M579 230L580 231L579 230z"/>
<path style="fill:#c7dde2; stroke:none;" d="M825 230L826 231L825 230z"/>
<path style="fill:#a3c3d5; stroke:none;" d="M211 231L212 232L211 231z"/>
<path style="fill:#c7dde2; stroke:none;" d="M246 231L247 232L246 231z"/>
<path style="fill:#a3c3d5; stroke:none;" d="M735 231L736 232L735 231M221 232L222 233L221 232M335 232L336 233L335 232z"/>
<path style="fill:#c7dde2; stroke:none;" d="M573 232L574 233L573 232z"/>
<path style="fill:#a3c3d5; stroke:none;" d="M824 232L825 233L824 232z"/>
<path style="fill:#c7dde2; stroke:none;" d="M210.333 233.667L210.667 234.333L210.333 233.667M221.333 233.667L221.667 234.333L221.333 233.667z"/>
<path style="fill:#a3c3d5; stroke:none;" d="M247 233L248 234L247 233z"/>
<path style="fill:#c7dde2; stroke:none;" d="M335 233L336 234L335 233z"/>
<path style="fill:#a3c3d5; stroke:none;" d="M574 233L575 234L574 233z"/>
<path style="fill:#c7dde2; stroke:none;" d="M577 233L578 234L577 233z"/>
<path style="fill:#a3c3d5; stroke:none;" d="M736 233L737 234L736 233M146 234L147 235L146 234z"/>
<path style="fill:#c7dde2; stroke:none;" d="M157 234L158 235L157 234z"/>
<path style="fill:#a3c3d5; stroke:none;" d="M576 234L577 235L576 234z"/>
<path style="fill:#c7dde2; stroke:none;" d="M736 234L737 235L736 234z"/>
<path style="fill:#a3c3d5; stroke:none;" d="M823 234L824 235L823 234z"/>
<path style="fill:#c7dde2; stroke:none;" d="M146 235L147 236L146 235z"/>
<path style="fill:#a3c3d5; stroke:none;" d="M157 235L158 236L157 235M248 235L249 236L248 235z"/>
<path style="fill:#c7dde2; stroke:none;" d="M334 235L335 236L334 235M823 235L824 236L823 235M209 236L210 237L209 236z"/>
<path style="fill:#a3c3d5; stroke:none;" d="M220 236L221 237L220 236z"/>
<path style="fill:#c7dde2; stroke:none;" d="M248 236L249 237L248 236M737 236L738 237L737 236z"/>
<path style="fill:#a3c3d5; stroke:none;" d="M822 236L823 237L822 236M158 237L159 238L158 237M209 237L210 238L209 237z"/>
<path style="fill:#c7dde2; stroke:none;" d="M220 237L221 238L220 237z"/>
<path style="fill:#a3c3d5; stroke:none;" d="M249 237L250 238L249 237z"/>
<path style="fill:#c7dde2; stroke:none;" d="M333 237L334 238L333 237M822 237L823 238L822 237M147 238L148 239L147 238M738 238L739 239L738 238z"/>
<path style="fill:#a3c3d5; stroke:none;" d="M821 238L822 239L821 238M159 239L160 240L159 239M208 239L209 240L208 239M219 239L220 240L219 239M250 239L251 240L250 239z"/>
<path style="fill:#c7dde2; stroke:none;" d="M332 239L333 240L332 239z"/>
<path style="fill:#a3c3d5; stroke:none;" d="M739 239L740 240L739 239z"/>
<path style="fill:#c7dde2; stroke:none;" d="M160 240L161 241L160 240M207 240L208 241L207 240M219 240L220 241L219 240z"/>
<path style="fill:#a3c3d5; stroke:none;" d="M331 240L332 241L331 240z"/>
<path style="fill:#c7dde2; stroke:none;" d="M820 240L821 241L820 240M148 241L149 242L148 241M251 241L252 242L251 241M740 241L741 242L740 241z"/>
<path style="fill:#a3c3d5; stroke:none;" d="M819 241L820 242L819 241M161 242L162 243L161 242M206 242L207 243L206 242z"/>
<path style="fill:#c7dde2; stroke:none;" d="M218 242L219 243L218 242z"/>
<path style="fill:#a3c3d5; stroke:none;" d="M252 242L253 243L252 242z"/>
<path style="fill:#c7dde2; stroke:none;" d="M330 242L331 243L330 242z"/>
<path style="fill:#a3c3d5; stroke:none;" d="M741 242L742 243L741 242z"/>
<path style="fill:#c7dde2; stroke:none;" d="M149 243L150 244L149 243M162 243L163 244L162 243M205 243L206 244L205 243M329 243L330 244L329 243M818 243L819 244L818 243M163 244L164 245L163 244M204 244L205 245L204 244M217 244L218 245L217 244z"/>
<path style="fill:#a3c3d5; stroke:none;" d="M328 244L329 245L328 244z"/>
<path style="fill:#c7dde2; stroke:none;" d="M742 244L743 245L742 244z"/>
<path style="fill:#a3c3d5; stroke:none;" d="M817 244L818 245L817 244z"/>
<path style="fill:#c7dde2; stroke:none;" d="M150 245L151 246L150 245M164 245L165 246L164 245M203 245L204 246L203 245M254 245L255 246L254 245z"/>
<path style="fill:#a3c3d5; stroke:none;" d="M743 245L744 246L743 245M816 245L817 246L816 245M151 246L152 247L151 246z"/>
<path style="fill:#c7dde2; stroke:none;" d="M165 246L166 247L165 246M202 246L203 247L202 246M216 246L217 247L216 246M255 246L256 247L255 246z"/>
<path style="fill:#a3c3d5; stroke:none;" d="M744 246L745 247L744 246M166 247L167 248L166 247M201 247L202 248L201 247z"/>
<path style="fill:#c7dde2; stroke:none;" d="M215 247L216 248L215 247M256 247L257 248L256 247z"/>
<path style="fill:#a3c3d5; stroke:none;" d="M745 247L746 248L745 247z"/>
<path style="fill:#c7dde2; stroke:none;" d="M152 248L153 249L152 248M168 248L169 249L168 248M199 248L200 249L199 248z"/>
<path style="fill:#a3c3d5; stroke:none;" d="M214 248L215 249L214 248z"/>
<path style="fill:#c7dde2; stroke:none;" d="M257 248L258 249L257 248z"/>
<path style="fill:#a3c3d5; stroke:none;" d="M746 248L747 249L746 248z"/>
<path style="fill:#c7dde2; stroke:none;" d="M153 249L154 250L153 249M170 249L171 250L170 249M197 249L198 250L197 249M258 249L259 250L258 249z"/>
<path style="fill:#a3c3d5; stroke:none;" d="M747 249L748 250L747 249z"/>
<path style="fill:#c7dde2; stroke:none;" d="M154 250L155 251L154 250z"/>
<path style="fill:#a3c3d5; stroke:none;" d="M172 250L173 251L172 250z"/>
<path style="fill:#c7dde2; stroke:none;" d="M173 250L174 251L173 250M194 250L195 251L194 250z"/>
<path style="fill:#a3c3d5; stroke:none;" d="M195 250L196 251L195 250z"/>
<path style="fill:#c7dde2; stroke:none;" d="M259 250L260 251L259 250z"/>
<path style="fill:#a3c3d5; stroke:none;" d="M748 250L749 251L748 250M811 250L812 251L811 250M155 251L156 252L155 251M175 251L176 252L175 251z"/>
<path style="fill:#c7dde2; stroke:none;" d="M176.667 251.333L177.333 251.667L176.667 251.333M190.667 251.333L191.333 251.667L190.667 251.333z"/>
<path style="fill:#a3c3d5; stroke:none;" d="M192 251L193 252L192 251z"/>
<path style="fill:#c7dde2; stroke:none;" d="M212 251L213 252L212 251M260 251L261 252L260 251z"/>
<path style="fill:#a3c3d5; stroke:none;" d="M321 251L322 252L321 251z"/>
<path style="fill:#c7dde2; stroke:none;" d="M749 251L750 252L749 251z"/>
<path style="fill:#a3c3d5; stroke:none;" d="M810 251L811 252L810 251z"/>
<path style="fill:#c7dde2; stroke:none;" d="M156 252L157 253L156 252z"/>
<path style="fill:#a3c3d5; stroke:none;" d="M182 252L182 253L185 253L182 252z"/>
<path style="fill:#c7dde2; stroke:none;" d="M320 252L321 253L320 252M750 252L751 253L750 252M809 252L810 253L809 252M157 253L158 254L157 253z"/>
<path style="fill:#a3c3d5; stroke:none;" d="M263 253L264 254L263 253z"/>
<path style="fill:#c7dde2; stroke:none;" d="M319 253L320 254L319 253z"/>
<path style="fill:#a3c3d5; stroke:none;" d="M752 253L753 254L752 253z"/>
<path style="fill:#c7dde2; stroke:none;" d="M808 253L809 254L808 253z"/>
<path style="fill:#a3c3d5; stroke:none;" d="M208 254L209 255L208 254z"/>
<path style="fill:#c7dde2; stroke:none;" d="M264 254L265 255L264 254z"/>
<path style="fill:#a3c3d5; stroke:none;" d="M317 254L318 255L317 254z"/>
<path style="fill:#c7dde2; stroke:none;" d="M753 254L754 255L753 254z"/>
<path style="fill:#a3c3d5; stroke:none;" d="M806 254L807 255L806 254M160 255L161 256L160 255z"/>
<path style="fill:#c7dde2; stroke:none;" d="M207 255L208 256L207 255M266 255L267 256L266 255z"/>
<path style="fill:#a3c3d5; stroke:none;" d="M315 255L316 256L315 255z"/>
<path style="fill:#c7dde2; stroke:none;" d="M316 255L317 256L316 255z"/>
<path style="fill:#a3c3d5; stroke:none;" d="M755 255L756 256L755 255M804 255L805 256L804 255z"/>
<path style="fill:#c7dde2; stroke:none;" d="M161 256L162 257L161 256z"/>
<path style="fill:#a3c3d5; stroke:none;" d="M205 256L206 257L205 256M268 256L269 257L268 256z"/>
<path style="fill:#c7dde2; stroke:none;" d="M314 256L315 257L314 256M756 256L757 257L756 256z"/>
<path style="fill:#a3c3d5; stroke:none;" d="M757 256L758 257L757 256M802 256L803 257L802 256z"/>
<path style="fill:#c7dde2; stroke:none;" d="M803 256L804 257L803 256M163 257L164 258L163 257z"/>
<path style="fill:#a3c3d5; stroke:none;" d="M203 257L204 258L203 257M270 257L271 258L270 257z"/>
<path style="fill:#c7dde2; stroke:none;" d="M312 257L313 258L312 257M758 257L759 258L758 257z"/>
<path style="fill:#a3c3d5; stroke:none;" d="M759 257L760 258L759 257M800 257L801 258L800 257z"/>
<path style="fill:#c7dde2; stroke:none;" d="M801 257L802 258L801 257M165 258L166 259L165 258z"/>
<path style="fill:#a3c3d5; stroke:none;" d="M166 258L167 259L166 258M201 258L202 259L201 258z"/>
<path style="fill:#c7dde2; stroke:none;" d="M272 258L273 259L272 258z"/>
<path style="fill:#a3c3d5; stroke:none;" d="M309 258L310 259L309 258z"/>
<path style="fill:#c7dde2; stroke:none;" d="M310 258L311 259L310 258z"/>
<path style="fill:#a3c3d5; stroke:none;" d="M761 258L762 259L761 258M798 258L799 259L798 258z"/>
<path style="fill:#c7dde2; stroke:none;" d="M799 258L800 259L799 258M168 259L169 260L168 259z"/>
<path style="fill:#a3c3d5; stroke:none;" d="M198 259L199 260L198 259z"/>
<path style="fill:#c7dde2; stroke:none;" d="M199 259L200 260L199 259M274.667 259.333L275.333 259.667L274.667 259.333z"/>
<path style="fill:#a3c3d5; stroke:none;" d="M306 259L307 260L306 259z"/>
<path style="fill:#c7dde2; stroke:none;" d="M307 259L308 260L307 259M763 259L764 260L763 259z"/>
<path style="fill:#a3c3d5; stroke:none;" d="M764 259L765 260L764 259M795 259L796 260L795 259z"/>
<path style="fill:#c7dde2; stroke:none;" d="M796 259L797 260L796 259M84 260L84 261L95 261L84 260M171 260L172 261L171 260z"/>
<path style="fill:#a3c3d5; stroke:none;" d="M172 260L173 261L172 260M194 260L195 261L194 260z"/>
<path style="fill:#c7dde2; stroke:none;" d="M195.667 260.333L196.333 260.667L195.667 260.333M278 260L279 261L278 260z"/>
<path style="fill:#a3c3d5; stroke:none;" d="M279 260L280 261L279 260M302 260L303 261L302 260z"/>
<path style="fill:#c7dde2; stroke:none;" d="M303.667 260.333L304.333 260.667L303.667 260.333M531 260L531 261L542 261L531 260M610 260L610 261L621 261L610 260M647 260L647 261L658 261L647 260M766.667 260.333L767.333 260.667L766.667 260.333z"/>
<path style="fill:#a3c3d5; stroke:none;" d="M768 260L769 261L768 260M791.667 260.333L792.333 260.667L791.667 260.333z"/>
<path style="fill:#c7dde2; stroke:none;" d="M793 260L794 261L793 260M175 261L175 262L178 262L175 261z"/>
<path style="fill:#a3c3d5; stroke:none;" d="M178 261L178 262L181 262L178 261M187.667 261.333L188.333 261.667L187.667 261.333z"/>
<path style="fill:#c7dde2; stroke:none;" d="M189 261L189 262L192 262L189 261M282.667 261.333L283.333 261.667L282.667 261.333z"/>
<path style="fill:#a3c3d5; stroke:none;" d="M284.667 261.333L285.333 261.667L284.667 261.333M296.667 261.333L297.333 261.667L296.667 261.333z"/>
<path style="fill:#c7dde2; stroke:none;" d="M298.667 261.333L299.333 261.667L298.667 261.333M771.667 261.333L772.333 261.667L771.667 261.333z"/>
<path style="fill:#a3c3d5; stroke:none;" d="M773.667 261.333L774.333 261.667L773.667 261.333M785.667 261.333L786.333 261.667L785.667 261.333z"/>
<path style="fill:#c7dde2; stroke:none;" d="M787.667 261.333L788.333 261.667L787.667 261.333z"/>
</svg>
