<?xml version="1.0" standalone="yes"?>
<svg xmlns="http://www.w3.org/2000/svg" width="300" height="86">
<path style="fill:#010101; stroke:none;" d="M0 0L0 18C7.89849 17.9948 24.9203 19.086 31.6096 14.821C37.8952 10.8134 38.7986 3.61882 47 1C34.8234 -4.10953 13.2649 0 0 0z"/>
<path style="fill:#97df42; stroke:none;" d="M0 18L0 30C9.31944 29.2645 22.8407 24.9383 31.8958 27.3218C42.2485 30.0468 45.2689 42.2363 59 37.0054C78.3894 29.619 72.4518 0.0293198 52 0.0293198C39.4461 0.0293198 39.373 9.75581 30.787 14.821C23.8985 18.8848 7.96571 17.9947 0 18z"/>
<path style="fill:#010101; stroke:none;" d="M57 0L57 1C74.6237 6.62816 75.396 31.8031 57 37.3511C44.5207 41.1147 42.2224 30.0457 32.7909 27.3179C23.8259 24.725 9.20336 28.8369 0 30L0 86L27 86L27 85C7.62713 81.5445 2 62.8825 2 46C11.2804 49.2607 8.89591 64.8191 16.1049 71.8148C29.0736 84.3997 51.8085 79.9162 58.5208 63C62.4048 53.2117 56.2851 43.2676 67 37C67 57.0641 66.3056 78.2733 43 85L43 86L300 86L300 65C293.391 66.2271 283.054 67.8526 277.015 64.142C269.61 59.5919 269.61 50.4081 277.015 45.858C281.108 43.3435 286.406 44 291 44C290.337 35.4965 280.472 38 274 38L274 31C282.88 30.2992 294.265 27.1485 299 37L300 37L300 0L57 0z"/>
<path style="fill:#75cf54; stroke:none;" d="M64 4L65 5L64 4z"/>
<path style="fill:#010101; stroke:none;" d="M49.0008 6.57253C32.9331 10.4057 38.8179 35.6226 54.9992 31.4414C70.8345 27.3495 64.6119 2.84831 49.0008 6.57253z"/>
<path style="fill:#75cf54; stroke:none;" d="M66 6L67 7L66 6M44 8L45 9L44 8M49 8L49 9L52 9L48 14L48 15L53 14L53 8L49 8M41 22L47 15L43 20L42 20L48 10C41.8379 9.86796 41.0434 17.2099 41 22z"/>
<path style="fill:#97df42; stroke:none;" d="M42 20L43 20L52 9C45.4053 9.73492 42.356 13.4972 42 20z"/>
<path style="fill:#75cf54; stroke:none;" d="M39 15L40 16L39 15z"/>
<path style="fill:#03a5d5; stroke:none;" d="M47 15L48 16L47 15z"/>
<path style="fill:#75cf54; stroke:none;" d="M64 16L65 17L64 16M9 17L10 18L9 17z"/>
<path style="fill:#03a5d5; stroke:none;" d="M44 18L45 19L44 18M96 18C96.0282 25.9731 98.3426 26.9941 106 27L106 18L96 18M256 18L257 30C251.492 30 244.804 28.9823 240.189 32.6528C232.644 38.6535 232.579 57.1585 240.214 63.1458C246.583 68.141 258.602 66.3734 266 65L266 19L256 18M42 21L43 22L42 21z"/>
<path style="fill:#75cf54; stroke:none;" d="M64 21L65 22L64 21M39 22L40 23L39 22z"/>
<path style="fill:#0166c8; stroke:none;" d="M96 26L97 27L96 26z"/>
<path style="fill:#03a5d5; stroke:none;" d="M90 71L90 78C93.9223 78 99.3283 78.8872 102.606 76.2577C106.511 73.1247 105.998 67.4562 106 63L106 30C90.9993 30.0116 95.9963 47.4709 96 59C96.002 65.1648 97.559 70.4787 90 71M114 31L114 38C120.432 38 129.697 35.8278 131 44C126.472 44 121.172 43.2865 117.019 45.4568C110.991 48.6074 109.8 59.0544 115.148 63.4861C119.564 67.1458 131.536 67.2881 136.852 65.5664C142.935 63.5959 141.286 37.4154 137.566 33.2284C132.391 27.4023 120.744 30.1477 114 31M147 65L156 65C156 55.1866 151.673 38.1575 165 38C165 49.3275 160.341 64.9887 175 65C175 55.1915 170.686 38.3221 184 38L184 65L193 65C193 57.0006 196.232 39.8112 191.258 33.2284C189.038 30.2909 185.407 29.9658 182 30.0193C178.787 30.0697 175.551 31.754 172.424 31.4869C165.821 30.9228 153.166 26.8523 148.028 33.7022C143.672 39.5096 147 57.797 147 65M229 65L229 57C221.266 57.9775 210.73 60.6114 208 51L231 51C230.693 47.107 230.425 42.7093 229.147 39.0008C225.872 29.5033 210.618 26.2149 203.394 33.3943C194.058 42.6717 197.649 64.7236 212 65.9066C217.729 66.3789 223.34 65.7154 229 65M274 31L274 38C280.432 38 289.697 35.8278 291 44C286.835 44 281.962 43.3601 278.004 44.8935C270.357 47.8561 268.593 58.353 275.109 63.4861C279.673 67.0818 291.427 67.3237 296.852 65.5664C302.992 63.5773 301.229 37.5203 297.486 33.2785C292.345 27.4522 280.683 30.1554 274 31z"/>
<path style="fill:#75cf54; stroke:none;" d="M3 32L4 33L3 32z"/>
<path style="fill:#97df42; stroke:none;" d="M32 48C37.2411 48.8258 39.2366 53.3791 44.0039 55.0918C53.5749 58.5305 56.9793 48.2066 57 41L9 40L9 32C4.05065 32.2742 0.0293114 35.0828 2.6034 40.7253C4.18042 44.1822 8.89864 44.3156 11.5015 46.6983C17.3236 52.0277 27.7818 62.6751 32 48z"/>
<path style="fill:#0166c8; stroke:none;" d="M237 35L238 36L237 35z"/>
<path style="fill:#75cf54; stroke:none;" d="M43 36L44 37L43 36z"/>
<path style="fill:#97df42; stroke:none;" d="M2 46C2 56.9485 2.29055 66.0348 9.51775 74.9853C21.4719 89.7899 46.1549 89.7184 58.8148 75.9599C68.7844 65.1251 67 50.5797 67 37C56.4447 41.1382 61.7153 51.2859 59.2106 60C54.7114 75.6537 36.2372 83.9027 22 75.6366C16.1561 72.2436 11.6173 66.4613 9.62269 60C7.76123 53.9701 9.31832 47.7983 2 46z"/>
<path style="fill:#0166c8; stroke:none;" d="M213 37L214 38L213 37z"/>
<path style="fill:#010101; stroke:none;" d="M208 44L221 44C219.241 35.542 210.139 36.0663 208 44M257 58L257 38C254.04 38.0003 249.914 37.3405 247.303 39.0278C242.625 42.051 242.909 53.759 247.43 56.821C250.024 58.5778 254.031 57.998 257 58z"/>
<path style="fill:#75cf54; stroke:none;" d="M41 45L42 46L41 45z"/>
<path style="fill:#0166c8; stroke:none;" d="M116 45L117 46L116 45z"/>
<path style="fill:#010101; stroke:none;" d="M17 46C20.1371 51.3732 25.0852 51.7752 28 46L17 46M42 46C44.2048 51.7625 49.7952 51.7625 52 46L42 46z"/>
<path style="fill:#75cf54; stroke:none;" d="M6 47L7 48L6 47M13 49L14 50L13 49z"/>
<path style="fill:#010101; stroke:none;" d="M131 59L131 50C118.744 50.0352 118.744 58.9648 131 59M291 59L291 50C278.452 50.036 278.359 58.9902 291 59z"/>
<path style="fill:#0166c8; stroke:none;" d="M244 51L245 52L244 51z"/>
<path style="fill:#75cf54; stroke:none;" d="M16 53L17 54L16 53M27 54L28 55L27 54M20 55L21 56L20 55z"/>
<path style="fill:#0166c8; stroke:none;" d="M245 55L246 56L245 55z"/>
<path style="fill:#75cf54; stroke:none;" d="M9 60L10 61L9 60M66 60L67 61L66 60z"/>
<path style="fill:#0166c8; stroke:none;" d="M165 64L166 65L165 64M96 68L97 69L96 68z"/>
<path style="fill:#75cf54; stroke:none;" d="M6 70L7 71L6 70M19 74L20 75L19 74M49 74L50 75L49 74z"/>
<path style="fill:#0166c8; stroke:none;" d="M104 74L105 75L104 74z"/>
<path style="fill:#75cf54; stroke:none;" d="M23 84L24 85L23 84M42 85L43 86L42 85z"/>
</svg>
